<svg xmlns="http://www.w3.org/2000/svg" shape-rendering="geometricPrecision" text-rendering="geometricPrecision" image-rendering="optimizeQuality" fill-rule="evenodd" clip-rule="evenodd" viewBox="0 0 512 430.32"><path d="M34.67 0h442.66C496.42 0 512 15.58 512 34.67v300.4c0 19.04-15.58 34.67-34.67 34.67h-69.8c-3.46-7.28-7.1-14.51-10.82-21.71h82.45c5.34 0 9.59-4.24 9.59-9.59V97.04h.17H24.67v241.4c0 5.34 4.25 9.59 9.58 9.59h81.18l-9.3 17.95-1.74 3.76H34.67C15.58 369.74 0 354.11 0 335.07V34.67C0 15.58 15.58 0 34.67 0zm228.91 150.99c5.08 1.75 9.37 5.14 13.37 8.63l.16.15c9.1 7.71 10.31 9.05 22.38 9.64 4.65.17 9.5.35 14 1.83 8.16 2.68 13.2 9.87 15.69 17.75 2.28 7.2 1.09 14.43 3.52 21.31 2.32 6.8 7.36 12.04 11.06 18.05 2.89 4.69 4.76 8.96 5.65 12.97 2.05 9.25-1.1 17.48-7.56 23.85-2.18 2.17-8.11 6.62-9.08 8.81-1.63 3.8-1.71 7.31-1.71 10.96-.08 4.98-.16 10.1-3.42 16.63l-.08.16c-4.21 8.11-10.63 13.68-19.36 16.48-6.43 2.06-14.16-.58-18.5 1.24l-.23.08c-8.69 3.7-15.21 12.69-23.87 15.47a31.436 31.436 0 0 1-9.56 1.48c-3.19 0-6.38-.47-9.56-1.48l-.16-.08c-4.28-1.32-8.08-4.43-12.13-7.69-3.65-2.96-7.54-6.06-11.81-7.85-2.03-.86-4.67-.63-7.55-.47-3.41.23-7.07.47-11.03-.78l-.23-.07c-4.28-1.41-8.01-3.5-11.28-6.22-3.18-2.8-5.91-6.22-7.93-10.35-3.26-6.53-3.34-11.66-3.42-16.63-.19-9.12-.34-10.63-6.76-16.17-8.71-7.4-14.48-15.19-11.74-27.52 1.33-5.99 4.89-12.52 10.73-20.22 3.19-4.12 4.97-7.61 6.06-10.8 2.26-6.47 1.33-13.33 3.11-20 2.04-7.61 6.93-15.38 14.47-18.44 4.91-2.01 10.36-2.19 15.54-2.37 11.8-.4 13.7-2.09 22.47-9.72 4.18-3.64 8.21-6.87 13.52-8.71 4.67-1.36 10.61-1.47 15.24.08zm87.22 257.17-23.39-4.2-11.74 21.07c-.08.15-.16.31-.31.38-4.9 6.07-9.41 5.91-13.3 2.73-4.19-3.42-7-10.73-8.79-15.55l-.69-1.79-24.8-46.8c-.78-1.47-.23-3.26 1.24-3.96.16-.08.31-.16.39-.16 2.57-.86 5.44-2.64 8.55-4.97 3.26-2.42 6.68-5.45 10.19-8.56.62-.54 1.4-.85 2.25-.77 6.69.15 13.22-.39 19.05-2.34 5.75-1.94 11.03-5.36 15.55-11.12 1-1.32 2.87-1.55 4.11-.54.32.32.63.62.78 1.01l28.69 55.35c2.28 4.92 5.46 10.8 2.64 16.25-1.56 3.03-4.58 4.59-9.71 4.2-.16-.08-.47-.15-.71-.23zm-166.13-4.2-23.4 4.2c-.23.08-.47.08-.78.08-5.12.38-8.16-1.17-9.71-4.2-1.13-2.13-1.19-4.86-.57-8.04.64-3.25 1.78-5.13 3.21-8.21l28.69-55.35c.16-.39.47-.7.78-1.01 1.32-1.01 3.11-.78 4.12.54 4.43 5.67 9.71 9.1 15.54 11.12 5.91 2.02 12.36 2.49 19.05 2.33.78-.08 1.55.16 2.25.78 3.5 3.11 6.92 6.14 10.19 8.55 3.11 2.33 5.99 4.12 8.55 4.98l.39.15c1.47.78 2.02 2.57 1.24 3.97l-24.8 46.8-.7 1.78c-1.79 4.82-4.58 12.13-8.78 15.55-3.88 3.11-8.32 3.34-13.3-2.72-.08-.16-.23-.23-.31-.39l-11.66-20.91zm100-203.21a50.77 50.77 0 0 0-28.63-8.79c-14.14 0-26.9 5.75-36.15 15s-15 22-15 36.15c0 14.15 5.75 26.9 15 36.15s22.01 15.01 36.15 15.01c14.15 0 26.9-5.76 36.15-15.01s15-22 15-36.15a51.686 51.686 0 0 0-7.16-26.04 51.405 51.405 0 0 0-15.36-16.32zM444.33 38.96c9.46 0 17.13 7.66 17.13 17.12s-7.67 17.13-17.13 17.13c-9.45 0-17.12-7.67-17.12-17.13.04-9.46 7.71-17.12 17.12-17.12zm-116 0c9.46 0 17.13 7.66 17.13 17.12s-7.67 17.13-17.13 17.13c-9.45 0-17.12-7.67-17.12-17.13 0-9.46 7.67-17.12 17.12-17.12zm58 0c9.46 0 17.13 7.66 17.13 17.12s-7.67 17.13-17.13 17.13c-9.46 0-17.12-7.67-17.12-17.13 0-9.46 7.66-17.12 17.12-17.12z"/></svg>